# xmcd
#
# Track frame offsets: 
#        150
#        10474
#        22690
#        35620
#        49483
#        64023
#        77255
#        89463
#        100516
#        113323
#        125490
#        139822
#        153492
#        167828
#
# Disc length: 2420 seconds
#
# Revision: 0
# Processed by: cddbd v1.5.2PL0 Copyright (c) Steve Scherf et al.
# Submitted via: ExactAudioCopy v0.99pb3
#
DISCID=a509720e
DTITLE=Tito Puente and Friends - Mambo with me
DYEAR=1900
DGENRE=Latin
TTITLE0=Coco Seco
TTITLE1=Pecao Y Tostao
TTITLE2=Mambo Suavecito
TTITLE3=Penjamo
TTITLE4=Este Tumbao
TTITLE5=El Rey Del Timbal
TTITLE6=Guajeo En Dominante
TTITLE7=Dark Eyes Mambo
TTITLE8=Camina Cameron
TTITLE9=Mississippi Mambo
TTITLE10=Tatalibaba
TTITLE11=Este Es Coco
TTITLE12=La Guira
TTITLE13=Bambaram Bam Bam
EXTD=
EXTT0=
EXTT1=
EXTT2=
EXTT3=
EXTT4=
EXTT5=
EXTT6=
EXTT7=
EXTT8=
EXTT9=
EXTT10=
EXTT11=
EXTT12=
EXTT13=
PLAYORDER=
